<svg xmlns="http://www.w3.org/2000/svg" xmlns:xlink="http://www.w3.org/1999/xlink" width="293.948" height="37.667" viewBox="0 0 293.948 37.667"><defs><style>.a,.c{fill:#fff;}.a{stroke:#707070;}.b{clip-path:url(#a);}.d{fill:rgba(0,0,0,0);stroke:rgba(0,0,0,0);stroke-width:0.994px;}</style><clipPath id="a"><rect class="a" width="293.948" height="37.667" transform="translate(278 13)"/></clipPath></defs><g class="b" transform="translate(-278 -13)"><g transform="translate(278.367 14.919)"><g transform="translate(39.978 7.977)"><path class="c" d="M132.011,80.995l.609.073.58.11.55.132.521.161.492.2.455.22.433.257.4.286.374.308.338.345.308.367.279.4.25.433.22.455.191.492.161.514.132.55.1.572.073.609.044.631.015.668v.161l-.007.154-.015.147-.022.139-.022.139-.029.125-.037.125-.037.11-.051.1-.051.1-.051.088-.066.088-.066.081-.073.066-.081.066-.081.051-.088.051-.1.037-.1.037-.1.029-.11.015-.117.015H124.79v-.1h-.029v2.568l.007.345.037.338.051.316.081.3.1.286.125.272.139.249.169.242.183.22.213.213.235.191.249.176.279.161.3.147.316.132.345.117.367.1.389.088.411.066.433.051.455.044.477.022.5.007h.183l.183-.007h.176l.176-.007.169-.007.169-.015.169-.007L132,97.2l.161-.015.154-.015.154-.022.147-.022.147-.022.139-.022.147-.029.132-.029.132-.029.132-.029.132-.037.125-.029.117-.037.117-.044.117-.037.066-.022.066-.029.073-.022.073-.037.081-.029.081-.037.088-.044.088-.037.1-.051.1-.051.1-.051.11-.059.1-.059.117-.066.117-.066.117-.073.125-.073.125-.081.132-.088.132-.088.139-.088.147-.1.147-.1.088-.081.088-.081.088-.073.088-.073.081-.066.073-.059.081-.059.073-.059.066-.051.066-.051.066-.044.066-.044.059-.037.059-.029.051-.037.051-.022.051-.022.044-.022.044-.015.037-.015.037-.007.037-.007h.117l.073.007.073.007.073.015.066.015.066.022.059.022.051.029.051.029.051.037.044.044.044.044.037.044.037.051.029.059.029.059.022.066.015.073.022.073.007.073.015.081v.088l.007.1-.007.088-.007.1-.015.1-.015.088-.029.1-.029.1-.029.1-.044.088-.044.1-.051.1-.059.1-.066.1-.066.088-.073.1-.073.1-.088.1-.088.1-.1.1-.1.1-.11.1-.11.1-.117.1-.117.1-.205.147-.213.147-.22.139-.227.139-.235.125-.249.125-.257.11-.264.11-.272.1-.286.1-.294.088-.3.081-.308.081-.316.066-.33.059-.33.059-.345.044-.352.044-.36.029-.374.029-.374.015-.382.015h-.4l-.682-.007-.653-.037-.624-.059-.594-.088-.565-.1-.536-.132-.5-.154-.477-.183-.44-.2-.411-.227-.382-.249-.36-.279L124,97.52,123.7,97.2l-.264-.352-.227-.367-.2-.4-.176-.418-.132-.448-.11-.462-.081-.492-.044-.521-.015-.543v-6.59l.015-.191.015-.176.022-.183.029-.183.029-.176.044-.176.044-.169.059-.176.059-.169.066-.169.073-.161.081-.161.081-.161.1-.161.1-.154.1-.154.11-.147.117-.147.125-.147.132-.139.132-.139.139-.139.191-.183.205-.169.205-.169.22-.154.227-.147.235-.139.249-.132.249-.125.264-.11.272-.11.279-.1.286-.088.3-.088.3-.073.316-.066.316-.059.33-.044.338-.044.338-.037.352-.022.36-.022.367-.007.374-.007.668.015Zm-2.855,2.245-.565.1-.55.139-.536.176-.506.213-.492.249-.448.352-.382.367-.323.4-.257.411-.183.433-.117.455-.037.477v1.35h11.447l-.125-1.372-.352-1.167-.594-.954-.837-.741-1.071-.536-1.321-.316-1.556-.11-.609.022Z" transform="translate(-122.457 -80.936)"/><path class="d" d="M132.011,80.995l.609.073.58.11.55.132.521.161.492.2.455.22.433.257.4.286.374.308.338.345.308.367.279.4.25.433.22.455.191.492.161.514.132.55.1.572.073.609.044.631.015.668v.161l-.007.154-.015.147-.022.139-.022.139-.029.125-.037.125-.037.11-.051.1-.051.1-.051.088-.066.088-.066.081-.073.066-.081.066-.081.051-.088.051-.1.037-.1.037-.1.029-.11.015-.117.015H124.79v-.1h-.029v2.568l.007.345.037.338.051.316.081.3.1.286.125.272.139.249.169.242.183.22.213.213.235.191.249.176.279.161.3.147.316.132.345.117.367.1.389.088.411.066.433.051.455.044.477.022.5.007h.183l.183-.007h.176l.176-.007.169-.007.169-.015.169-.007L132,97.2l.161-.015.154-.015.154-.022.147-.022.147-.022.139-.022.147-.029.132-.029.132-.029.132-.029.132-.037.125-.029.117-.037.117-.044.117-.037.066-.022.066-.029.073-.022.073-.037.081-.029.081-.037.088-.044.088-.037.1-.051.1-.051.1-.051.11-.059.1-.059.117-.066.117-.066.117-.073.125-.073.125-.081.132-.088.132-.088.139-.088.147-.1.147-.1.088-.081.088-.081.088-.073.088-.073.081-.066.073-.059.081-.059.073-.059.066-.051.066-.051.066-.044.066-.044.059-.037.059-.029.051-.037.051-.022.051-.022.044-.022.044-.015.037-.015.037-.007.037-.007h.117l.073.007.073.007.073.015.066.015.066.022.059.022.051.029.051.029.051.037.044.044.044.044.037.044.037.051.029.059.029.059.022.066.015.073.022.073.007.073.015.081v.088l.007.1-.007.088-.007.1-.015.1-.015.088-.029.1-.029.1-.029.1-.044.088-.044.1-.051.1-.059.1-.066.1-.066.088-.073.1-.073.1-.088.1-.088.1-.1.1-.1.1-.11.1-.11.1-.117.1-.117.1-.205.147-.213.147-.22.139-.227.139-.235.125-.249.125-.257.11-.264.11-.272.1-.286.1-.294.088-.3.081-.308.081-.316.066-.33.059-.33.059-.345.044-.352.044-.36.029-.374.029-.374.015-.382.015h-.4l-.682-.007-.653-.037-.624-.059-.594-.088-.565-.1-.536-.132-.5-.154-.477-.183-.44-.2-.411-.227-.382-.249-.36-.279L124,97.52,123.7,97.2l-.264-.352-.227-.367-.2-.4-.176-.418-.132-.448-.11-.462-.081-.492-.044-.521-.015-.543v-6.59l.015-.191.015-.176.022-.183.029-.183.029-.176.044-.176.044-.169.059-.176.059-.169.066-.169.073-.161.081-.161.081-.161.1-.161.1-.154.1-.154.11-.147.117-.147.125-.147.132-.139.132-.139.139-.139.191-.183.205-.169.205-.169.22-.154.227-.147.235-.139.249-.132.249-.125.264-.11.272-.11.279-.1.286-.088.3-.088.3-.073.316-.066.316-.059.33-.044.338-.044.338-.037.352-.022.36-.022.367-.007.374-.007.668.015Zm-2.855,2.245-.565.1-.55.139-.536.176-.506.213-.492.249-.448.352-.382.367-.323.4-.257.411-.183.433-.117.455-.037.477v1.35h11.447l-.125-1.372-.352-1.167-.594-.954-.837-.741-1.071-.536-1.321-.316-1.556-.11-.609.022Z" transform="translate(-122.457 -80.936)"/></g><g transform="translate(19.762 7.947)"><path class="c" d="M100.067,83.523H96.625c-.954,0-1.431-.4-1.431-1.115,0-.793.477-1.108,1.431-1.108h4.638c.793,0,1.189.712,1.189,2.011a6.507,6.507,0,0,1,4.557-2.414,4.031,4.031,0,0,1,3.126,1.2A4.4,4.4,0,0,1,111.25,85.3c0,.873-.4,1.35-1.115,1.35-.477,0-.793-.323-.954-.873a10.266,10.266,0,0,0-.558-1.754,1.926,1.926,0,0,0-1.746-.873,3.834,3.834,0,0,0-2.488.954,10.622,10.622,0,0,0-1.937,2.091V96.923h4.315c.954,0,1.431.4,1.431,1.115,0,.793-.477,1.2-1.431,1.2H96.515c-.954,0-1.431-.4-1.431-1.115,0-.793.477-1.115,1.431-1.115h3.522v-.1h.029Z" transform="translate(-95.084 -80.896)"/><path class="d" d="M100.067,83.523H96.625c-.954,0-1.431-.4-1.431-1.115,0-.793.477-1.108,1.431-1.108h4.638c.793,0,1.189.712,1.189,2.011a6.507,6.507,0,0,1,4.557-2.414,4.031,4.031,0,0,1,3.126,1.2A4.4,4.4,0,0,1,111.25,85.3c0,.873-.4,1.35-1.115,1.35-.477,0-.793-.323-.954-.873a10.266,10.266,0,0,0-.558-1.754,1.926,1.926,0,0,0-1.746-.873,3.834,3.834,0,0,0-2.488.954,10.622,10.622,0,0,0-1.937,2.091V96.923h4.315c.954,0,1.431.4,1.431,1.115,0,.793-.477,1.2-1.431,1.2H96.515c-.954,0-1.431-.4-1.431-1.115,0-.793.477-1.115,1.431-1.115h3.522v-.1h.029Z" transform="translate(-95.084 -80.896)"/></g><g transform="translate(0 0.264)"><path class="c" d="M69.678,80.826c-.873,0-1.35-.4-1.35-1.108,0-.8.477-1.115,1.35-1.115h2.576V76.349c0-3.919,2.011-5.856,5.929-5.856a8.465,8.465,0,0,1,4,.881,4.077,4.077,0,0,1,2.1,3.6c0,1.027-.4,1.431-1.115,1.431a1.355,1.355,0,0,1-1.2-.881,7.836,7.836,0,0,0-.793-1.849,3.653,3.653,0,0,0-2.81-.873c-2.407,0-3.6,1.189-3.6,3.6V78.58H79.4c1.035,0,1.512.4,1.512,1.108,0,.793-.477,1.115-1.512,1.115H74.77V95.45c0,.873-.4,1.35-1.115,1.35-.793,0-1.115-.477-1.115-1.35V80.8h-.286v.022Z" transform="translate(-68.328 -70.493)"/><path class="d" d="M69.678,80.826c-.873,0-1.35-.4-1.35-1.108,0-.8.477-1.115,1.35-1.115h2.576V76.349c0-3.919,2.011-5.856,5.929-5.856a8.465,8.465,0,0,1,4,.881,4.077,4.077,0,0,1,2.1,3.6c0,1.027-.4,1.431-1.115,1.431a1.355,1.355,0,0,1-1.2-.881,7.836,7.836,0,0,0-.793-1.849,3.653,3.653,0,0,0-2.81-.873c-2.407,0-3.6,1.189-3.6,3.6V78.58H79.4c1.035,0,1.512.4,1.512,1.108,0,.793-.477,1.115-1.512,1.115H74.77V95.45c0,.873-.4,1.35-1.115,1.35-.793,0-1.115-.477-1.115-1.35V80.8h-.286v.022Z" transform="translate(-68.328 -70.493)"/></g><g transform="translate(60.084 7.977)"><path class="c" d="M159.235,80.995l.609.073.58.11.55.132.521.161.492.2.455.22.433.257.4.286.374.308.338.345.308.367.279.4.249.433.22.455.191.492.161.514.132.55.1.572.073.609.044.631.015.668v.161l-.007.154-.015.147-.022.139-.022.139-.029.125-.037.125-.037.11-.051.1-.051.1-.051.088-.066.088-.066.081-.073.066-.081.066-.081.051-.088.051-.1.037-.1.037-.1.029-.11.015-.117.015H152.014v-.1h-.029v2.568l.015.345.029.338.059.316.073.3.1.286.125.272.139.249.169.242.191.22.205.213.235.191.249.176.279.161.3.147.316.132.345.117.367.1.389.088.411.066.433.051.455.044.477.022.5.007h.183l.183-.007h.176l.176-.007.169-.007.169-.015.169-.007.161-.015.161-.015.154-.015.154-.022.147-.022.147-.022.147-.022.139-.029.132-.029.139-.029.125-.029.132-.037.125-.029.117-.037.117-.044.117-.037.066-.022.066-.029.073-.022.073-.037.081-.029.081-.037.088-.044.088-.037.1-.051.1-.051.1-.051.1-.059.11-.059.11-.066.117-.066.117-.073.125-.073.125-.081.132-.088.132-.088.139-.088.147-.1.147-.1.088-.081.088-.081.088-.073.088-.073.081-.066L164.2,95l.081-.059.073-.059.066-.051.066-.051.066-.044.066-.044.059-.037.059-.029.051-.037.051-.022.051-.022.044-.022.044-.015.037-.015.037-.007.037-.007h.117l.073.007.073.007.073.015.066.015.066.022.059.022.051.029.051.029.051.037.044.044.044.044.037.044.037.051.029.059.029.059.022.066.015.073.022.073.007.073.015.081v.088l.007.1-.007.088-.007.1-.015.1-.015.088-.029.1-.029.1-.029.1-.044.088-.044.1-.051.1-.059.1-.059.1-.073.088-.073.1-.073.1-.088.1-.088.1-.1.1-.1.1-.11.1-.11.1-.117.1-.117.1-.205.147-.213.147-.22.139-.227.139-.235.125-.249.125-.257.11-.264.11-.272.1-.286.1-.294.088-.3.081-.308.081-.316.066-.33.059-.33.059L160,99.4l-.352.044-.36.029-.367.029-.382.015-.382.015h-.4l-.682-.007-.653-.037-.624-.059-.594-.088-.565-.1-.528-.132-.506-.154-.477-.183-.44-.2-.411-.227-.382-.249-.352-.279-.323-.294-.294-.323-.264-.352-.227-.367-.2-.4-.169-.418-.139-.448-.11-.462-.081-.492-.044-.521-.015-.543v-6.59l.015-.191.015-.176.022-.183.029-.183.029-.176.044-.176.044-.169.059-.176.059-.169.066-.169.073-.161.081-.161.081-.161.1-.161.1-.154.1-.154.11-.147.117-.147.125-.147.132-.139.132-.139.139-.139.191-.183.205-.169.205-.169.22-.154.227-.147.235-.139.249-.132.249-.125.264-.11.271-.11.279-.1.286-.088.3-.088.3-.073.316-.066.316-.059.33-.044.338-.044.338-.037.352-.022.36-.022.367-.007.374-.007.668.015ZM156.38,83.24l-.565.1-.55.139-.536.176-.506.213-.492.249-.47.352-.4.367-.323.4-.242.411-.176.433-.1.455-.037.477v1.35h11.447l-.125-1.372-.352-1.167-.594-.954-.837-.741-1.071-.536-1.321-.316-1.556-.11-.609.022Z" transform="translate(-149.681 -80.936)"/><path class="d" d="M159.235,80.995l.609.073.58.11.55.132.521.161.492.2.455.22.433.257.4.286.374.308.338.345.308.367.279.4.249.433.22.455.191.492.161.514.132.55.1.572.073.609.044.631.015.668v.161l-.007.154-.015.147-.022.139-.022.139-.029.125-.037.125-.037.11-.051.1-.051.1-.051.088-.066.088-.066.081-.073.066-.081.066-.081.051-.088.051-.1.037-.1.037-.1.029-.11.015-.117.015H152.014v-.1h-.029v2.568l.015.345.029.338.059.316.073.3.1.286.125.272.139.249.169.242.191.22.205.213.235.191.249.176.279.161.3.147.316.132.345.117.367.1.389.088.411.066.433.051.455.044.477.022.5.007h.183l.183-.007h.176l.176-.007.169-.007.169-.015.169-.007.161-.015.161-.015.154-.015.154-.022.147-.022.147-.022.147-.022.139-.029.132-.029.139-.029.125-.029.132-.037.125-.029.117-.037.117-.044.117-.037.066-.022.066-.029.073-.022.073-.037.081-.029.081-.037.088-.044.088-.037.1-.051.1-.051.1-.051.1-.059.11-.059.11-.066.117-.066.117-.073.125-.073.125-.081.132-.088.132-.088.139-.088.147-.1.147-.1.088-.081.088-.081.088-.073.088-.073.081-.066L164.2,95l.081-.059.073-.059.066-.051.066-.051.066-.044.066-.044.059-.037.059-.029.051-.037.051-.022.051-.022.044-.022.044-.015.037-.015.037-.007.037-.007h.117l.073.007.073.007.073.015.066.015.066.022.059.022.051.029.051.029.051.037.044.044.044.044.037.044.037.051.029.059.029.059.022.066.015.073.022.073.007.073.015.081v.088l.007.1-.007.088-.007.1-.015.1-.015.088-.029.1-.029.1-.029.1-.044.088-.044.1-.051.1-.059.1-.059.1-.073.088-.073.1-.073.1-.088.1-.088.1-.1.1-.1.1-.11.1-.11.1-.117.1-.117.1-.205.147-.213.147-.22.139-.227.139-.235.125-.249.125-.257.11-.264.11-.272.1-.286.1-.294.088-.3.081-.308.081-.316.066-.33.059-.33.059L160,99.4l-.352.044-.36.029-.367.029-.382.015-.382.015h-.4l-.682-.007-.653-.037-.624-.059-.594-.088-.565-.1-.528-.132-.506-.154-.477-.183-.44-.2-.411-.227-.382-.249-.352-.279-.323-.294-.294-.323-.264-.352-.227-.367-.2-.4-.169-.418-.139-.448-.11-.462-.081-.492-.044-.521-.015-.543v-6.59l.015-.191.015-.176.022-.183.029-.183.029-.176.044-.176.044-.169.059-.176.059-.169.066-.169.073-.161.081-.161.081-.161.1-.161.1-.154.1-.154.11-.147.117-.147.125-.147.132-.139.132-.139.139-.139.191-.183.205-.169.205-.169.22-.154.227-.147.235-.139.249-.132.249-.125.264-.11.271-.11.279-.1.286-.088.3-.088.3-.073.316-.066.316-.059.33-.044.338-.044.338-.037.352-.022.36-.022.367-.007.374-.007.668.015ZM156.38,83.24l-.565.1-.55.139-.536.176-.506.213-.492.249-.47.352-.4.367-.323.4-.242.411-.176.433-.1.455-.037.477v1.35h11.447l-.125-1.372-.352-1.167-.594-.954-.837-.741-1.071-.536-1.321-.316-1.556-.11-.609.022Z" transform="translate(-149.681 -80.936)"/></g><g transform="translate(80.404 1.299)"><path class="c" d="M177.193,79.739c0-5.276,2.7-7.844,8.321-7.844a9.591,9.591,0,0,1,5.452,1.431,5.928,5.928,0,0,1,2.414,4.953c0,.954-.4,1.431-1.2,1.431q-.837,0-1.189-1.431a8.328,8.328,0,0,0-.873-2.253c-.719-1.269-2.253-1.849-4.638-1.849-2.091,0-3.522.477-4.4,1.5a6.908,6.908,0,0,0-1.277,4.557v8.321a6.691,6.691,0,0,0,1.35,4.638,5.784,5.784,0,0,0,4.484,1.585c3.126,0,4.953-1.108,5.349-3.28.154-.8.235-1.2.235-1.277a.934.934,0,0,1,.954-.712c.8,0,1.2.477,1.2,1.431a5.405,5.405,0,0,1-2.495,4.718,9.412,9.412,0,0,1-5.269,1.35,9.188,9.188,0,0,1-6.017-1.754c-1.7-1.108-2.407-3.016-2.407-5.511h0Z" transform="translate(-177.193 -71.894)"/><path class="d" d="M177.193,79.739c0-5.276,2.7-7.844,8.321-7.844a9.591,9.591,0,0,1,5.452,1.431,5.928,5.928,0,0,1,2.414,4.953c0,.954-.4,1.431-1.2,1.431q-.837,0-1.189-1.431a8.328,8.328,0,0,0-.873-2.253c-.719-1.269-2.253-1.849-4.638-1.849-2.091,0-3.522.477-4.4,1.5a6.908,6.908,0,0,0-1.277,4.557v8.321a6.691,6.691,0,0,0,1.35,4.638,5.784,5.784,0,0,0,4.484,1.585c3.126,0,4.953-1.108,5.349-3.28.154-.8.235-1.2.235-1.277a.934.934,0,0,1,.954-.712c.8,0,1.2.477,1.2,1.431a5.405,5.405,0,0,1-2.495,4.718,9.412,9.412,0,0,1-5.269,1.35,9.188,9.188,0,0,1-6.017-1.754c-1.7-1.108-2.407-3.016-2.407-5.511h0Z" transform="translate(-177.193 -71.894)"/></g><g transform="translate(100.246 7.925)"><path class="c" d="M214.024,80.962l.844.117.793.161.719.213.668.257.6.308.536.352.477.4.411.44.352.5.286.536.22.587.161.638.1.675.029.726v6.575l-.029.726-.1.675-.154.638-.22.587-.279.536-.338.492-.4.448-.462.4-.528.352-.587.308-.653.257-.712.213-.771.161-.837.117-.9.073-.954.022-1.013-.007-.947-.059-.881-.11-.807-.154-.741-.205-.675-.257-.609-.3-.543-.352-.477-.4-.418-.448-.345-.5-.286-.543-.22-.594-.154-.646-.1-.69-.029-.741V86.876l.029-.726.1-.675.161-.638.22-.587.286-.536.352-.5.411-.44.477-.4.536-.352.6-.308.66-.257.726-.213.793-.161.844-.117.91-.073.976-.022.976.022Zm-3.742,2.26-.734.132-.66.183-.587.235-.514.294-.433.338-.352.4-.279.44-.2.492-.125.55-.037.594v6.575l.037.594.125.543.2.5.286.44.36.389.44.338.521.279.6.235.682.169.763.125.844.059.917.007.9-.007.822-.059.756-.11.668-.169.594-.22.514-.279.44-.33.36-.389.279-.448.2-.5.125-.558.037-.609V86.876l-.037-.594-.125-.55-.2-.492-.286-.44-.367-.4-.44-.338-.528-.294-.609-.235-.7-.183-.77-.132-.859-.081-.939-.022-.881.022Z" transform="translate(-204.059 -80.866)"/><path class="d" d="M214.024,80.962l.844.117.793.161.719.213.668.257.6.308.536.352.477.4.411.44.352.5.286.536.22.587.161.638.1.675.029.726v6.575l-.029.726-.1.675-.154.638-.22.587-.279.536-.338.492-.4.448-.462.4-.528.352-.587.308-.653.257-.712.213-.771.161-.837.117-.9.073-.954.022-1.013-.007-.947-.059-.881-.11-.807-.154-.741-.205-.675-.257-.609-.3-.543-.352-.477-.4-.418-.448-.345-.5-.286-.543-.22-.594-.154-.646-.1-.69-.029-.741V86.876l.029-.726.1-.675.161-.638.22-.587.286-.536.352-.5.411-.44.477-.4.536-.352.6-.308.66-.257.726-.213.793-.161.844-.117.91-.073.976-.022.976.022Zm-3.742,2.26-.734.132-.66.183-.587.235-.514.294-.433.338-.352.4-.279.44-.2.492-.125.55-.037.594v6.575l.037.594.125.543.2.5.286.44.36.389.44.338.521.279.6.235.682.169.763.125.844.059.917.007.9-.007.822-.059.756-.11.668-.169.594-.22.514-.279.44-.33.36-.389.279-.448.2-.5.125-.558.037-.609V86.876l-.037-.594-.125-.55-.2-.492-.286-.44-.367-.4-.44-.338-.528-.294-.609-.235-.7-.183-.77-.132-.859-.081-.939-.022-.881.022Z" transform="translate(-204.059 -80.866)"/></g><g transform="translate(120.169 0.191)"><path class="c" d="M245.886,70.4l.1.022.1.022.088.029.081.044.073.044.073.051.066.059.059.066.059.066.051.081.044.088.044.1.037.1.029.11.029.11.022.125.022.125.007.139.007.139.007.147V95.608l-.007.11-.007.1-.007.1-.022.088-.022.088-.022.081-.037.073-.029.073-.044.066-.044.066-.051.051-.051.051-.059.051-.059.037-.073.037-.066.037-.073.029-.081.022-.088.015-.088.015-.088.007H245.7l-.059-.007-.059-.007-.059-.007-.059-.015-.051-.022-.051-.015-.051-.029-.044-.022-.044-.029-.044-.037-.037-.037-.037-.037-.037-.044-.029-.051-.029-.051-.029-.051-.022-.059-.022-.066-.015-.066-.022-.066-.007-.073V95.9l-.007-.059v-.051l-.007-.059v-.051l-.007-.059v-.059l-.007-.059-.007-.066-.007-.059v-.066l-.007-.066-.007-.066v-.073l-.007-.066-.007-.081v-.154l-.007-.081v-.176l-.191.117-.176.117-.183.117-.169.1-.169.1-.154.1-.161.1-.147.088-.147.088-.139.081-.132.081-.132.073-.117.066-.117.066-.117.066-.1.051-.1.059-.1.044-.1.044-.081.037-.081.037-.081.029-.117.044-.125.044-.125.037-.132.037-.132.037-.139.029-.139.029-.139.029-.147.029-.147.022-.147.022-.154.022-.154.022-.154.015-.161.015-.161.015-.161.007-.169.007-.161.007-.169.007h-.638l-.294-.007-.279-.015-.279-.022-.271-.022-.272-.037-.257-.037-.257-.044-.257-.044-.242-.059-.242-.059-.242-.066-.227-.066L235,96.136l-.22-.081-.22-.081-.213-.1-.205-.1-.2-.1-.2-.11-.191-.11-.191-.117-.2-.139-.191-.154-.191-.154-.169-.161-.169-.169-.161-.176-.147-.183L232,94.015l-.132-.191-.117-.205-.117-.205-.1-.213-.088-.22-.088-.227-.073-.227-.066-.242-.051-.249-.044-.249-.037-.257-.029-.264-.015-.272V83.713l.015-.272.029-.257.029-.249.044-.249.059-.242.059-.235.073-.227.081-.22.088-.213.1-.213.1-.205.117-.2.132-.191.132-.183.147-.183.147-.169.161-.169.169-.161.183-.154.183-.154.2-.139.176-.117.176-.11.191-.11.2-.1.2-.1.205-.1.213-.081.213-.081.22-.081.228-.066.227-.066.235-.059L236,78.3l.242-.044.249-.044.249-.037.257-.037.257-.022.257-.022.264-.015.272-.007h.631l.176.007.176.007.169.007.176.007.161.015.169.015.154.015.161.022.154.022.154.022.147.022.147.029.147.029.139.029.132.029.132.037.132.037.132.037.117.044.125.044.117.044.125.044.117.051.125.051.125.059.132.059.125.066.125.066.132.073.132.073.132.073.132.081.132.088.132.088.132.088.139.1.139.1.132.1.139.1.139.11.139.117.139.117V72.06l.007-.147.007-.139.007-.139.022-.125.022-.125.022-.11.037-.11.029-.1.044-.1.044-.088.051-.081.051-.066.059-.066.059-.059.073-.051.066-.044.073-.044.081-.029.088-.022.088-.022.088-.007h.205Zm-7.778,10.1-.367.037-.36.037-.352.059-.33.073-.323.081-.3.1-.286.11-.272.132-.249.139-.286.205-.272.22-.242.235-.213.249-.191.257-.161.279-.139.294-.1.308-.073.323-.051.33-.015.352v6.325l.015.367.044.345.066.33.1.316.125.294.154.279.191.264.22.242.242.227.279.2.308.191.271.125.279.117.294.1.308.1.316.088.338.073.345.066.367.051.374.037.389.022.4.007.323-.007.323-.007.316-.022.308-.029.3-.044.3-.044.286-.059.279-.073.272-.081.257-.088.242-.1.205-.139.213-.147.22-.154.22-.169.227-.169.235-.183.242-.191.242-.2.249-.213.257-.22.257-.227V82.707l-.3-.213-.294-.2-.279-.2-.279-.183-.264-.169-.249-.154-.242-.147-.227-.125-.213-.11-.2-.1L242,81.042l-.264-.1-.264-.088-.272-.081-.279-.073-.279-.059-.286-.044-.294-.044-.286-.029-.3-.022-.3-.007-.3-.007-.382.007Z" transform="translate(-231.034 -70.394)"/><path class="d" d="M245.886,70.4l.1.022.1.022.088.029.081.044.073.044.073.051.066.059.059.066.059.066.051.081.044.088.044.1.037.1.029.11.029.11.022.125.022.125.007.139.007.139.007.147V95.608l-.007.11-.007.1-.007.1-.022.088-.022.088-.022.081-.037.073-.029.073-.044.066-.044.066-.051.051-.051.051-.059.051-.059.037-.073.037-.066.037-.073.029-.081.022-.088.015-.088.015-.088.007H245.7l-.059-.007-.059-.007-.059-.007-.059-.015-.051-.022-.051-.015-.051-.029-.044-.022-.044-.029-.044-.037-.037-.037-.037-.037-.037-.044-.029-.051-.029-.051-.029-.051-.022-.059-.022-.066-.015-.066-.022-.066-.007-.073V95.9l-.007-.059v-.051l-.007-.059v-.051l-.007-.059v-.059l-.007-.059-.007-.066-.007-.059v-.066l-.007-.066-.007-.066v-.073l-.007-.066-.007-.081v-.154l-.007-.081v-.176l-.191.117-.176.117-.183.117-.169.1-.169.1-.154.1-.161.1-.147.088-.147.088-.139.081-.132.081-.132.073-.117.066-.117.066-.117.066-.1.051-.1.059-.1.044-.1.044-.081.037-.081.037-.081.029-.117.044-.125.044-.125.037-.132.037-.132.037-.139.029-.139.029-.139.029-.147.029-.147.022-.147.022-.154.022-.154.022-.154.015-.161.015-.161.015-.161.007-.169.007-.161.007-.169.007h-.638l-.294-.007-.279-.015-.279-.022-.271-.022-.272-.037-.257-.037-.257-.044-.257-.044-.242-.059-.242-.059-.242-.066-.227-.066L235,96.136l-.22-.081-.22-.081-.213-.1-.205-.1-.2-.1-.2-.11-.191-.11-.191-.117-.2-.139-.191-.154-.191-.154-.169-.161-.169-.169-.161-.176-.147-.183L232,94.015l-.132-.191-.117-.205-.117-.205-.1-.213-.088-.22-.088-.227-.073-.227-.066-.242-.051-.249-.044-.249-.037-.257-.029-.264-.015-.272V83.713l.015-.272.029-.257.029-.249.044-.249.059-.242.059-.235.073-.227.081-.22.088-.213.1-.213.1-.205.117-.2.132-.191.132-.183.147-.183.147-.169.161-.169.169-.161.183-.154.183-.154.2-.139.176-.117.176-.11.191-.11.2-.1.2-.1.205-.1.213-.081.213-.081.22-.081.228-.066.227-.066.235-.059L236,78.3l.242-.044.249-.044.249-.037.257-.037.257-.022.257-.022.264-.015.272-.007h.631l.176.007.176.007.169.007.176.007.161.015.169.015.154.015.161.022.154.022.154.022.147.022.147.029.147.029.139.029.132.029.132.037.132.037.132.037.117.044.125.044.117.044.125.044.117.051.125.051.125.059.132.059.125.066.125.066.132.073.132.073.132.073.132.081.132.088.132.088.132.088.139.1.139.1.132.1.139.1.139.11.139.117.139.117V72.06l.007-.147.007-.139.007-.139.022-.125.022-.125.022-.11.037-.11.029-.1.044-.1.044-.088.051-.081.051-.066.059-.066.059-.059.073-.051.066-.044.073-.044.081-.029.088-.022.088-.022.088-.007h.205Zm-7.778,10.1-.367.037-.36.037-.352.059-.33.073-.323.081-.3.1-.286.11-.272.132-.249.139-.286.205-.272.22-.242.235-.213.249-.191.257-.161.279-.139.294-.1.308-.073.323-.051.33-.015.352v6.325l.015.367.044.345.066.33.1.316.125.294.154.279.191.264.22.242.242.227.279.2.308.191.271.125.279.117.294.1.308.1.316.088.338.073.345.066.367.051.374.037.389.022.4.007.323-.007.323-.007.316-.022.308-.029.3-.044.3-.044.286-.059.279-.073.272-.081.257-.088.242-.1.205-.139.213-.147.22-.154.22-.169.227-.169.235-.183.242-.191.242-.2.249-.213.257-.22.257-.227V82.707l-.3-.213-.294-.2-.279-.2-.279-.183-.264-.169-.249-.154-.242-.147-.227-.125-.213-.11-.2-.1L242,81.042l-.264-.1-.264-.088-.272-.081-.279-.073-.279-.059-.286-.044-.294-.044-.286-.029-.3-.022-.3-.007-.3-.007-.382.007Z" transform="translate(-231.034 -70.394)"/></g><g transform="translate(140.378 7.977)"><path class="c" d="M267.951,80.995l.609.073.58.11.55.132.521.161.492.2.462.22.426.257.4.286.367.308.338.345.308.367.286.4.249.433.22.455.191.492.161.514.132.55.1.572.073.609.044.631.015.668-.007.161-.007.154-.015.147-.015.139-.029.139-.029.125-.037.125-.037.11-.044.1-.051.1-.059.088-.066.088-.066.081-.073.066-.073.066-.088.051-.088.051-.1.037-.1.037-.11.029-.11.015-.117.015H260.73v-.1H260.7v2.568l.015.345.029.338.059.316.073.3.1.286.117.272.147.249.161.242.191.22.205.213.235.191.257.176.272.161.3.147.323.132.338.117.367.1.389.088.411.066.433.051.455.044.477.022.5.007h.183l.183-.007h.176l.176-.007.176-.007.169-.015.161-.007.161-.015.161-.015.154-.015.154-.022.147-.022.147-.022.147-.022.139-.029.139-.029.132-.029.132-.029.125-.037.125-.029.125-.037.117-.044.11-.037.066-.022.066-.029.073-.022.073-.037.081-.029.081-.037.088-.044.088-.037.1-.051.1-.051.1-.051.1-.059.11-.059.11-.066.117-.066.117-.073.125-.073.125-.081.132-.088.139-.088.139-.088.139-.1.147-.1.088-.081.1-.081.081-.073.088-.073.081-.066.081-.059.073-.059.073-.059.066-.051.073-.051.066-.044.059-.044.059-.037.059-.029.051-.037.051-.022.051-.022.044-.022.044-.015.044-.015.037-.007.029-.007h.117l.081.007.073.007.066.015.066.015.066.022.059.022.059.029.051.029.044.037.044.044.044.044.037.044.037.051.029.059.029.059.022.066.022.073.015.073.015.073.007.081.007.088V95.6l-.015.1-.007.1-.022.088-.022.1-.029.1-.037.1-.044.088-.044.1-.051.1-.059.1-.059.1-.066.088-.073.1-.081.1-.081.1-.1.1-.1.1-.1.1-.11.1-.11.1-.11.1-.125.1-.205.147-.205.147-.22.139-.235.139-.235.125-.249.125-.257.11-.264.11-.272.1-.286.1-.294.088-.3.081-.308.081-.316.066-.323.059-.338.059-.345.044-.352.044-.36.029-.367.029-.382.015-.382.015h-.4l-.682-.007-.653-.037-.624-.059-.594-.088-.558-.1-.536-.132-.506-.154-.47-.183-.448-.2-.411-.227-.382-.249-.352-.279-.323-.294-.294-.323-.257-.352-.235-.367-.2-.4-.169-.418-.139-.448-.11-.462-.073-.492-.051-.521L258.4,93.2V86.792l.007-.183.007-.191.015-.176.022-.183.029-.183.037-.176.037-.176.051-.169.051-.176.059-.169.066-.169.073-.161.081-.161.081-.161.1-.161.1-.154.1-.154.117-.147.11-.147.125-.147.132-.139.132-.139.147-.139.191-.183.2-.169.213-.169.213-.154.227-.147.242-.139.242-.132.257-.125.257-.11.272-.11.279-.1.294-.088.294-.088.3-.073.316-.066.316-.059.33-.044.338-.044.345-.037.345-.022.36-.022.367-.007.374-.007.675.015ZM265.1,83.24l-.572.1-.55.139-.528.176-.514.213-.484.249-.477.352-.4.367-.316.4-.25.411-.176.433-.1.455L260.7,87v1.35h11.447l-.117-1.372-.36-1.167-.594-.954-.837-.741-1.071-.536-1.321-.316-1.556-.11-.6.022Z" transform="translate(-258.397 -80.936)"/><path class="d" d="M267.951,80.995l.609.073.58.11.55.132.521.161.492.2.462.22.426.257.4.286.367.308.338.345.308.367.286.4.249.433.22.455.191.492.161.514.132.55.1.572.073.609.044.631.015.668-.007.161-.007.154-.015.147-.015.139-.029.139-.029.125-.037.125-.037.11-.044.1-.051.1-.059.088-.066.088-.066.081-.073.066-.073.066-.088.051-.088.051-.1.037-.1.037-.11.029-.11.015-.117.015H260.73v-.1H260.7v2.568l.015.345.029.338.059.316.073.3.1.286.117.272.147.249.161.242.191.22.205.213.235.191.257.176.272.161.3.147.323.132.338.117.367.1.389.088.411.066.433.051.455.044.477.022.5.007h.183l.183-.007h.176l.176-.007.176-.007.169-.015.161-.007.161-.015.161-.015.154-.015.154-.022.147-.022.147-.022.147-.022.139-.029.139-.029.132-.029.132-.029.125-.037.125-.029.125-.037.117-.044.11-.037.066-.022.066-.029.073-.022.073-.037.081-.029.081-.037.088-.044.088-.037.1-.051.1-.051.1-.051.1-.059.11-.059.11-.066.117-.066.117-.073.125-.073.125-.081.132-.088.139-.088.139-.088.139-.1.147-.1.088-.081.1-.081.081-.073.088-.073.081-.066.081-.059.073-.059.073-.059.066-.051.073-.051.066-.044.059-.044.059-.037.059-.029.051-.037.051-.022.051-.022.044-.022.044-.015.044-.015.037-.007.029-.007h.117l.081.007.073.007.066.015.066.015.066.022.059.022.059.029.051.029.044.037.044.044.044.044.037.044.037.051.029.059.029.059.022.066.022.073.015.073.015.073.007.081.007.088V95.6l-.015.1-.007.1-.022.088-.022.1-.029.1-.037.1-.044.088-.044.1-.051.1-.059.1-.059.1-.066.088-.073.1-.081.1-.081.1-.1.1-.1.1-.1.1-.11.1-.11.1-.11.1-.125.1-.205.147-.205.147-.22.139-.235.139-.235.125-.249.125-.257.11-.264.11-.272.1-.286.1-.294.088-.3.081-.308.081-.316.066-.323.059-.338.059-.345.044-.352.044-.36.029-.367.029-.382.015-.382.015h-.4l-.682-.007-.653-.037-.624-.059-.594-.088-.558-.1-.536-.132-.506-.154-.47-.183-.448-.2-.411-.227-.382-.249-.352-.279-.323-.294-.294-.323-.257-.352-.235-.367-.2-.4-.169-.418-.139-.448-.11-.462-.073-.492-.051-.521L258.4,93.2V86.792l.007-.183.007-.191.015-.176.022-.183.029-.183.037-.176.037-.176.051-.169.051-.176.059-.169.066-.169.073-.161.081-.161.081-.161.1-.161.1-.154.1-.154.117-.147.11-.147.125-.147.132-.139.132-.139.147-.139.191-.183.2-.169.213-.169.213-.154.227-.147.242-.139.242-.132.257-.125.257-.11.272-.11.279-.1.294-.088.294-.088.3-.073.316-.066.316-.059.33-.044.338-.044.345-.037.345-.022.36-.022.367-.007.374-.007.675.015ZM265.1,83.24l-.572.1-.55.139-.528.176-.514.213-.484.249-.477.352-.4.367-.316.4-.25.411-.176.433-.1.455L260.7,87v1.35h11.447l-.117-1.372-.36-1.167-.594-.954-.837-.741-1.071-.536-1.321-.316-1.556-.11-.6.022Z" transform="translate(-258.397 -80.936)"/></g><g transform="translate(160.697 1.299)"><path class="c" d="M285.909,79.739c0-5.276,2.73-7.844,8.321-7.844a9.574,9.574,0,0,1,5.452,1.431,5.928,5.928,0,0,1,2.414,4.953c0,.954-.4,1.431-1.2,1.431q-.825,0-1.189-1.431a8.328,8.328,0,0,0-.873-2.253c-.719-1.269-2.253-1.849-4.638-1.849-2.091,0-3.522.477-4.4,1.5a6.952,6.952,0,0,0-1.27,4.557v8.321a6.691,6.691,0,0,0,1.35,4.638,5.767,5.767,0,0,0,4.476,1.585c3.126,0,4.953-1.108,5.349-3.28.161-.8.242-1.2.242-1.277a.926.926,0,0,1,.947-.712c.8,0,1.2.477,1.2,1.431a5.4,5.4,0,0,1-2.488,4.718,9.455,9.455,0,0,1-5.276,1.35,9.153,9.153,0,0,1-6.01-1.754c-1.622-1.108-2.414-3.016-2.414-5.511h0Z" transform="translate(-285.909 -71.894)"/><path class="d" d="M285.909,79.739c0-5.276,2.73-7.844,8.321-7.844a9.574,9.574,0,0,1,5.452,1.431,5.928,5.928,0,0,1,2.414,4.953c0,.954-.4,1.431-1.2,1.431q-.825,0-1.189-1.431a8.328,8.328,0,0,0-.873-2.253c-.719-1.269-2.253-1.849-4.638-1.849-2.091,0-3.522.477-4.4,1.5a6.952,6.952,0,0,0-1.27,4.557v8.321a6.691,6.691,0,0,0,1.35,4.638,5.767,5.767,0,0,0,4.476,1.585c3.126,0,4.953-1.108,5.349-3.28.161-.8.242-1.2.242-1.277a.926.926,0,0,1,.947-.712c.8,0,1.2.477,1.2,1.431a5.4,5.4,0,0,1-2.488,4.718,9.455,9.455,0,0,1-5.276,1.35,9.153,9.153,0,0,1-6.01-1.754c-1.622-1.108-2.414-3.016-2.414-5.511h0Z" transform="translate(-285.909 -71.894)"/></g><g transform="translate(180.649 7.764)"><path class="c" d="M321.164,80.655l.271.007.272.015.257.022.249.015.242.029.242.022.235.037.227.029.22.044.213.037.205.051.205.044.191.051.2.059.183.059.176.059.176.066.169.073.169.066.161.081.154.073.147.081.147.088.161.117.154.125.147.125.139.139.132.139.132.154.125.154.117.161.11.169.1.176.1.176.1.183.081.2.081.2.073.205.066.205.059.22.051.22.044.227.037.235.029.242.029.249.015.25.015.257v8.534l.007.11v.11l.007.1.007.1.007.1.007.1.015.1.015.088.015.081.022.088.015.081.022.073.022.073.029.073.029.066.029.066.029.066.029.059.037.059.037.051.044.051.044.051.044.044.044.044.007.007.015.007.022.015.015.015.029.007.022.015.029.015.029.015.037.022.037.015.037.015.044.022.044.015.051.022.051.022.051.022.059.022.059.022.059.022.066.022.066.029.066.022.066.029.073.029.081.029.044.015.044.022.044.022.037.029.037.022.037.029.037.029.029.037.029.029.029.037.022.044.022.037.022.044.022.044.015.051.015.044.015.059.015.051.007.059.015.059.007.066v.066l.007.066v.294l-.015.073-.007.059-.015.066-.015.059-.022.059-.022.051-.029.051-.029.044L330,98.89l-.037.044-.037.037-.044.037-.051.029-.051.029-.051.029-.059.022-.059.022-.066.015-.073.015-.073.007-.073.007-.081.007H329.1l-.029-.007h-.022l-.029-.007h-.029l-.029-.007-.037-.007-.037-.007-.037-.007-.037-.007-.037-.015-.044-.007-.044-.015-.044-.007-.051-.015-.051-.015-.051-.015-.059-.015-.051-.015-.059-.015-.066-.015-.059-.022-.066-.015-.1-.037-.1-.037-.1-.037-.1-.029-.088-.037-.088-.029-.088-.029-.081-.029-.081-.022-.073-.029-.066-.022-.073-.022-.059-.022-.066-.022-.059-.015-.051-.022-.051-.015-.044-.015-.044-.015-.037-.015-.037-.015-.037-.015-.029-.007-.022-.015-.022-.007-.051-.007-.044-.007-.051-.015-.044-.015-.044-.022-.037-.029-.044-.029-.037-.029-.037-.037-.037-.044-.037-.037-.029-.051-.029-.044-.037-.059-.029-.051-.022-.059L325.9,97.8l-.029-.066-.022-.066-.022-.066-.022-.073-.022-.073-.022-.073-.022-.073-.022-.081-.161.11-.161.11-.154.1-.154.1-.147.1-.139.088-.139.088-.132.088-.125.081-.125.081-.117.073-.117.073-.11.066-.1.059-.1.059-.1.059-.1.051-.081.051-.088.044-.073.037-.073.037-.066.029-.059.029-.059.029-.059.015-.1.044-.1.029-.1.037-.1.037-.11.029-.11.029-.11.029-.11.022-.117.029-.117.022-.125.022-.125.022-.125.015-.125.022-.132.015-.132.015-.132.015-.139.007-.139.015-.139.007-.147.007-.139.007h-.682l-.227-.007-.22-.007-.22-.015-.22-.015-.213-.022-.213-.022-.205-.029-.205-.037-.2-.037-.2-.037-.191-.044-.191-.044-.183-.051-.183-.059-.176-.059-.176-.066-.169-.066-.169-.066-.161-.081-.161-.073-.154-.081-.154-.088-.147-.088-.147-.1-.169-.117-.161-.117-.154-.132-.154-.132-.139-.132-.132-.139-.132-.147-.117-.147-.117-.154-.11-.161-.1-.161-.1-.169-.088-.169-.081-.176-.073-.176-.066-.183-.059-.191-.059-.191L313.1,95.2l-.037-.2-.029-.205L313,94.59l-.015-.213-.015-.213v-.44l.015-.213.015-.22.029-.205.037-.205.037-.205.051-.2.051-.2.066-.191.073-.183.073-.183.088-.183.088-.176.1-.169.1-.169.11-.161.117-.154.125-.154.139-.147.132-.139.147-.139.154-.132.161-.125.161-.125.176-.117.154-.11.154-.11.161-.1.169-.1.169-.1.176-.088.176-.088.183-.081.183-.073.183-.073.191-.066.2-.059.2-.059.2-.051.205-.051.206-.044.205-.037.213-.037.213-.029.22-.022.213-.022.227-.015.22-.015.228-.007h.418l.191.007.2.007.2.015.2.015.2.022.205.022.205.029.213.037.205.029.213.044.213.037.22.044.22.051.22.051.227.059.228.059.227.059.227.066.242.066.235.073.242.073.242.081.249.081.25.088V86.5l-.007-.161-.007-.154-.015-.154-.022-.154-.029-.139-.029-.147-.044-.139-.044-.132-.051-.132-.059-.125-.066-.125-.073-.117-.073-.117-.088-.117-.088-.1-.1-.11-.1-.1-.1-.1-.117-.1L324.32,84l-.125-.088-.132-.081-.139-.073-.147-.073-.154-.073-.1-.044-.11-.044-.11-.044-.117-.037-.117-.037-.117-.037-.117-.037-.125-.029-.125-.029-.125-.029-.132-.022L322.2,83.2l-.139-.022-.132-.022-.132-.015-.139-.015-.139-.015-.147-.015-.139-.007-.147-.015-.147-.007h-.147l-.147-.007h-.66l-.345.015-.338.015-.316.029-.3.037-.294.044-.271.044-.264.059-.25.066-.235.081-.22.081-.213.088-.2.1-.183.1-.169.117-.154.117-.147.132-.132.139-.117.154-.11.154-.088.161-.088.176-.066.183-.059.191-.044.2-.015.1-.022.088-.015.081-.015.081-.015.073-.015.073-.015.066-.015.066-.015.059-.007.059-.015.051-.007.051-.015.044-.007.044-.007.037-.007.037-.007.029-.007.029v.029l-.007.022v.022l-.007.015v.037l-.022.051-.022.044-.022.044-.022.037-.029.037-.029.037-.022.037-.037.029-.029.029-.037.029-.029.022-.037.022-.044.022-.037.022-.044.015-.037.015-.044.015-.051.015-.044.007-.051.015-.051.007h-.051l-.051.007H314.1l-.088-.007-.088-.015-.088-.015-.081-.015-.073-.029-.073-.029-.073-.029-.066-.044-.066-.037-.059-.051-.059-.044-.051-.059-.051-.059-.044-.066-.037-.066-.037-.066-.037-.081L313,86.5l-.029-.081-.022-.088-.015-.088-.007-.1-.007-.1v-.242l.007-.147.007-.139.022-.139.015-.139L313,85.1l.029-.139.037-.139.037-.139.044-.139.044-.132.051-.139.059-.132.066-.139.066-.132.066-.132.081-.132.081-.132.081-.132.088-.125.1-.132.1-.125.1-.125.1-.125.117-.125.132-.154.154-.139.154-.139.169-.132.183-.125.183-.125.2-.11.205-.11.22-.1.22-.1.235-.088.249-.088.25-.073.264-.073.271-.066.279-.059.286-.051.294-.051.308-.037.308-.037.323-.029.33-.022.338-.015.345-.007.352-.007h.279Zm-3.1,10.229-.954.338-.741.484-.536.616-.323.756-.1.9.029.47.088.44.154.418.213.382.272.338.345.286.411.235.352.191.389.161.418.132.448.1.477.073.506.044.536.015.47-.015.455-.029.44-.059.433-.088.418-.11.418-.154.411-.183.279-.161.308-.205.345-.227.367-.257.4-.286.411-.308.433-.33V91.486l-.749-.227-.748-.191-.741-.161-.726-.125-.712-.1-.69-.059-.66-.015-1.372.066Z" transform="translate(-312.924 -80.648)"/><path class="d" d="M321.164,80.655l.271.007.272.015.257.022.249.015.242.029.242.022.235.037.227.029.22.044.213.037.205.051.205.044.191.051.2.059.183.059.176.059.176.066.169.073.169.066.161.081.154.073.147.081.147.088.161.117.154.125.147.125.139.139.132.139.132.154.125.154.117.161.11.169.1.176.1.176.1.183.081.2.081.2.073.205.066.205.059.22.051.22.044.227.037.235.029.242.029.249.015.25.015.257v8.534l.007.11v.11l.007.1.007.1.007.1.007.1.015.1.015.088.015.081.022.088.015.081.022.073.022.073.029.073.029.066.029.066.029.066.029.059.037.059.037.051.044.051.044.051.044.044.044.044.007.007.015.007.022.015.015.015.029.007.022.015.029.015.029.015.037.022.037.015.037.015.044.022.044.015.051.022.051.022.051.022.059.022.059.022.059.022.066.022.066.029.066.022.066.029.073.029.081.029.044.015.044.022.044.022.037.029.037.022.037.029.037.029.029.037.029.029.029.037.022.044.022.037.022.044.022.044.015.051.015.044.015.059.015.051.007.059.015.059.007.066v.066l.007.066v.294l-.015.073-.007.059-.015.066-.015.059-.022.059-.022.051-.029.051-.029.044L330,98.89l-.037.044-.037.037-.044.037-.051.029-.051.029-.051.029-.059.022-.059.022-.066.015-.073.015-.073.007-.073.007-.081.007H329.1l-.029-.007h-.022l-.029-.007h-.029l-.029-.007-.037-.007-.037-.007-.037-.007-.037-.007-.037-.015-.044-.007-.044-.015-.044-.007-.051-.015-.051-.015-.051-.015-.059-.015-.051-.015-.059-.015-.066-.015-.059-.022-.066-.015-.1-.037-.1-.037-.1-.037-.1-.029-.088-.037-.088-.029-.088-.029-.081-.029-.081-.022-.073-.029-.066-.022-.073-.022-.059-.022-.066-.022-.059-.015-.051-.022-.051-.015-.044-.015-.044-.015-.037-.015-.037-.015-.037-.015-.029-.007-.022-.015-.022-.007-.051-.007-.044-.007-.051-.015-.044-.015-.044-.022-.037-.029-.044-.029-.037-.029-.037-.037-.037-.044-.037-.037-.029-.051-.029-.044-.037-.059-.029-.051-.022-.059L325.9,97.8l-.029-.066-.022-.066-.022-.066-.022-.073-.022-.073-.022-.073-.022-.073-.022-.081-.161.11-.161.11-.154.1-.154.1-.147.1-.139.088-.139.088-.132.088-.125.081-.125.081-.117.073-.117.073-.11.066-.1.059-.1.059-.1.059-.1.051-.081.051-.088.044-.073.037-.073.037-.066.029-.059.029-.059.029-.059.015-.1.044-.1.029-.1.037-.1.037-.11.029-.11.029-.11.029-.11.022-.117.029-.117.022-.125.022-.125.022-.125.015-.125.022-.132.015-.132.015-.132.015-.139.007-.139.015-.139.007-.147.007-.139.007h-.682l-.227-.007-.22-.007-.22-.015-.22-.015-.213-.022-.213-.022-.205-.029-.205-.037-.2-.037-.2-.037-.191-.044-.191-.044-.183-.051-.183-.059-.176-.059-.176-.066-.169-.066-.169-.066-.161-.081-.161-.073-.154-.081-.154-.088-.147-.088-.147-.1-.169-.117-.161-.117-.154-.132-.154-.132-.139-.132-.132-.139-.132-.147-.117-.147-.117-.154-.11-.161-.1-.161-.1-.169-.088-.169-.081-.176-.073-.176-.066-.183-.059-.191-.059-.191L313.1,95.2l-.037-.2-.029-.205L313,94.59l-.015-.213-.015-.213v-.44l.015-.213.015-.22.029-.205.037-.205.037-.205.051-.2.051-.2.066-.191.073-.183.073-.183.088-.183.088-.176.1-.169.1-.169.11-.161.117-.154.125-.154.139-.147.132-.139.147-.139.154-.132.161-.125.161-.125.176-.117.154-.11.154-.11.161-.1.169-.1.169-.1.176-.088.176-.088.183-.081.183-.073.183-.073.191-.066.2-.059.2-.059.2-.051.205-.051.206-.044.205-.037.213-.037.213-.029.22-.022.213-.022.227-.015.22-.015.228-.007h.418l.191.007.2.007.2.015.2.015.2.022.205.022.205.029.213.037.205.029.213.044.213.037.22.044.22.051.22.051.227.059.228.059.227.059.227.066.242.066.235.073.242.073.242.081.249.081.25.088V86.5l-.007-.161-.007-.154-.015-.154-.022-.154-.029-.139-.029-.147-.044-.139-.044-.132-.051-.132-.059-.125-.066-.125-.073-.117-.073-.117-.088-.117-.088-.1-.1-.11-.1-.1-.1-.1-.117-.1L324.32,84l-.125-.088-.132-.081-.139-.073-.147-.073-.154-.073-.1-.044-.11-.044-.11-.044-.117-.037-.117-.037-.117-.037-.117-.037-.125-.029-.125-.029-.125-.029-.132-.022L322.2,83.2l-.139-.022-.132-.022-.132-.015-.139-.015-.139-.015-.147-.015-.139-.007-.147-.015-.147-.007h-.147l-.147-.007h-.66l-.345.015-.338.015-.316.029-.3.037-.294.044-.271.044-.264.059-.25.066-.235.081-.22.081-.213.088-.2.1-.183.1-.169.117-.154.117-.147.132-.132.139-.117.154-.11.154-.088.161-.088.176-.066.183-.059.191-.044.2-.015.1-.022.088-.015.081-.015.081-.015.073-.015.073-.015.066-.015.066-.015.059-.007.059-.015.051-.007.051-.015.044-.007.044-.007.037-.007.037-.007.029-.007.029v.029l-.007.022v.022l-.007.015v.037l-.022.051-.022.044-.022.044-.022.037-.029.037-.029.037-.022.037-.037.029-.029.029-.037.029-.029.022-.037.022-.044.022-.037.022-.044.015-.037.015-.044.015-.051.015-.044.007-.051.015-.051.007h-.051l-.051.007H314.1l-.088-.007-.088-.015-.088-.015-.081-.015-.073-.029-.073-.029-.073-.029-.066-.044-.066-.037-.059-.051-.059-.044-.051-.059-.051-.059-.044-.066-.037-.066-.037-.066-.037-.081L313,86.5l-.029-.081-.022-.088-.015-.088-.007-.1-.007-.1v-.242l.007-.147.007-.139.022-.139.015-.139L313,85.1l.029-.139.037-.139.037-.139.044-.139.044-.132.051-.139.059-.132.066-.139.066-.132.066-.132.081-.132.081-.132.081-.132.088-.125.1-.132.1-.125.1-.125.1-.125.117-.125.132-.154.154-.139.154-.139.169-.132.183-.125.183-.125.2-.11.205-.11.22-.1.22-.1.235-.088.249-.088.25-.073.264-.073.271-.066.279-.059.286-.051.294-.051.308-.037.308-.037.323-.029.33-.022.338-.015.345-.007.352-.007h.279Zm-3.1,10.229-.954.338-.741.484-.536.616-.323.756-.1.9.029.47.088.44.154.418.213.382.272.338.345.286.411.235.352.191.389.161.418.132.448.1.477.073.506.044.536.015.47-.015.455-.029.44-.059.433-.088.418-.11.418-.154.411-.183.279-.161.308-.205.345-.227.367-.257.4-.286.411-.308.433-.33V91.486l-.749-.227-.748-.191-.741-.161-.726-.125-.712-.1-.69-.059-.66-.015-1.372.066Z" transform="translate(-312.924 -80.648)"/></g><g transform="translate(200.411 7.947)"><path class="c" d="M343.092,81.373a3.563,3.563,0,0,1,2.018-.477,4.037,4.037,0,0,1,3.361,2.018,4.742,4.742,0,0,1,1.754-1.512,4.655,4.655,0,0,1,2.245-.477c2.73,0,4.161,1.35,4.161,4V97.906c0,1.115-.4,1.592-1.189,1.592s-1.115-.477-1.115-1.592V85.747c0-1.666-.712-2.568-2.091-2.568a3.8,3.8,0,0,0-2.965,1.857V98.016c0,1.108-.4,1.585-1.115,1.585s-1.115-.477-1.115-1.585V86.011c0-1.857-.793-2.73-2.253-2.73-.947,0-1.849.638-2.8,1.857v12.9c0,1.115-.4,1.592-1.2,1.592s-1.108-.477-1.108-1.592V82.114c0-.793.316-1.108.954-1.108a.9.9,0,0,1,.793.712,1.925,1.925,0,0,1,.235,1.086h0A19.859,19.859,0,0,1,343.092,81.373Z" transform="translate(-339.68 -80.896)"/><path class="d" d="M343.092,81.373a3.563,3.563,0,0,1,2.018-.477,4.037,4.037,0,0,1,3.361,2.018,4.742,4.742,0,0,1,1.754-1.512,4.655,4.655,0,0,1,2.245-.477c2.73,0,4.161,1.35,4.161,4V97.906c0,1.115-.4,1.592-1.189,1.592s-1.115-.477-1.115-1.592V85.747c0-1.666-.712-2.568-2.091-2.568a3.8,3.8,0,0,0-2.965,1.857V98.016c0,1.108-.4,1.585-1.115,1.585s-1.115-.477-1.115-1.585V86.011c0-1.857-.793-2.73-2.253-2.73-.947,0-1.849.638-2.8,1.857v12.9c0,1.115-.4,1.592-1.2,1.592s-1.108-.477-1.108-1.592V82.114c0-.793.316-1.108.954-1.108a.9.9,0,0,1,.793.712,1.925,1.925,0,0,1,.235,1.086h0A19.859,19.859,0,0,1,343.092,81.373Z" transform="translate(-339.68 -80.896)"/></g><g transform="translate(220.994 7.844)"><path class="c" d="M368.592,80.764l.037.007.044.007.044.015.044.015.044.022.037.022.044.022.044.029.037.029.044.037.037.037.044.037.037.044.037.044.037.051.037.051.037.059.037.051.029.066.037.059.007.059.015.059.015.059.022.066.015.059.022.059.015.059.022.059.022.066.022.059.022.059.022.059.022.066.022.059.022.059.015.059.022.059.015.059.015.059.022.051.007.059.015.051.352-.169.345-.161.345-.161.33-.147.33-.139.316-.132.316-.125.308-.117.3-.1.294-.1.286-.088.279-.088.279-.073.264-.066.264-.066.257-.051.242-.044.242-.037.235-.022.228-.022.227-.015h.213l.653.015.616.037.587.066.558.088.528.117.5.139.462.169.44.191.4.213.374.242.345.272.316.286.286.316.257.345.227.367.191.389.169.411.132.44.1.462.081.484.044.506.015.536v6.648l-.007.264-.015.249-.022.25-.029.242-.037.242-.051.227-.059.227-.066.22-.073.213-.081.205-.088.205-.1.2-.11.2-.117.191-.125.183-.132.176-.139.176-.154.169-.161.169-.161.161-.176.154-.183.154-.169.132-.169.117-.183.117-.183.11-.191.1-.191.1-.205.1-.205.081-.213.081-.22.073-.22.073-.235.059-.235.059-.235.051-.25.044-.249.037-.257.029-.257.029-.264.022-.272.015-.272.007h-.616l-.338-.015-.33-.022-.323-.022-.323-.037-.316-.044-.308-.051-.308-.066-.308-.066-.3-.081L372.782,99l-.293-.1-.286-.1-.286-.117-.279-.117-.279-.132-.272-.139-.271-.147-.264-.154-.264-.161-.257-.176-.257-.183v7.668l-.007.147-.015.139-.015.125-.022.125-.029.117-.029.11-.037.11-.037.1-.051.1-.044.081-.059.081-.051.066-.066.066-.066.059-.073.051-.073.037-.081.037-.081.029-.088.015-.1.015h-.191l-.088-.007-.088-.022-.081-.022-.081-.029-.073-.044-.073-.044-.066-.051-.066-.059-.059-.073-.051-.073-.051-.081-.044-.088-.037-.1-.037-.11-.029-.11-.029-.117-.022-.132-.015-.132-.015-.147-.007-.147v-22.8l.007-.147.007-.132.015-.132.015-.125.022-.117.029-.11.029-.1.037-.1.037-.088.037-.088.044-.073.051-.073.051-.066.059-.051.066-.051.059-.044.073-.037.073-.022.073-.022.081-.015h.132Zm6.325,2.444-.33.022-.323.029-.308.044-.294.044-.286.059-.272.073-.264.081-.257.088-.242.1-.213.1-.22.117-.22.132-.227.154-.227.176-.235.191-.242.213-.249.227-.257.242-.272.264-.286.279v9.143h.081v-.029l.66.389.638.352.616.323.594.279.572.242.558.2.536.169.506.132.492.1.47.051.448.022.389-.007.374-.015.36-.037.352-.044.338-.051.323-.073.308-.081.294-.1.279-.11.264-.132.242-.139.294-.183.257-.2.227-.213.2-.227.169-.242.139-.257.11-.272.088-.279.066-.3.029-.316.015-.323V86.958l-.015-.382-.037-.36-.073-.33-.1-.316-.132-.294L380.472,85l-.191-.257-.213-.235-.25-.213-.279-.205-.308-.176-.25-.125-.264-.117-.279-.1-.294-.088-.316-.081-.33-.066-.345-.051-.36-.044-.374-.029-.389-.015-.4-.007-.36.007Z" transform="translate(-367.55 -80.757)"/><path class="d" d="M368.592,80.764l.037.007.044.007.044.015.044.015.044.022.037.022.044.022.044.029.037.029.044.037.037.037.044.037.037.044.037.044.037.051.037.051.037.059.037.051.029.066.037.059.007.059.015.059.015.059.022.066.015.059.022.059.015.059.022.059.022.066.022.059.022.059.022.059.022.066.022.059.022.059.015.059.022.059.015.059.015.059.022.051.007.059.015.051.352-.169.345-.161.345-.161.33-.147.33-.139.316-.132.316-.125.308-.117.3-.1.294-.1.286-.088.279-.088.279-.073.264-.066.264-.066.257-.051.242-.044.242-.037.235-.022.228-.022.227-.015h.213l.653.015.616.037.587.066.558.088.528.117.5.139.462.169.44.191.4.213.374.242.345.272.316.286.286.316.257.345.227.367.191.389.169.411.132.44.1.462.081.484.044.506.015.536v6.648l-.007.264-.015.249-.022.25-.029.242-.037.242-.051.227-.059.227-.066.22-.073.213-.081.205-.088.205-.1.2-.11.2-.117.191-.125.183-.132.176-.139.176-.154.169-.161.169-.161.161-.176.154-.183.154-.169.132-.169.117-.183.117-.183.11-.191.1-.191.1-.205.1-.205.081-.213.081-.22.073-.22.073-.235.059-.235.059-.235.051-.25.044-.249.037-.257.029-.257.029-.264.022-.272.015-.272.007h-.616l-.338-.015-.33-.022-.323-.022-.323-.037-.316-.044-.308-.051-.308-.066-.308-.066-.3-.081L372.782,99l-.293-.1-.286-.1-.286-.117-.279-.117-.279-.132-.272-.139-.271-.147-.264-.154-.264-.161-.257-.176-.257-.183v7.668l-.007.147-.015.139-.015.125-.022.125-.029.117-.029.11-.037.11-.037.1-.051.1-.044.081-.059.081-.051.066-.066.066-.066.059-.073.051-.073.037-.081.037-.081.029-.088.015-.1.015h-.191l-.088-.007-.088-.022-.081-.022-.081-.029-.073-.044-.073-.044-.066-.051-.066-.059-.059-.073-.051-.073-.051-.081-.044-.088-.037-.1-.037-.11-.029-.11-.029-.117-.022-.132-.015-.132-.015-.147-.007-.147v-22.8l.007-.147.007-.132.015-.132.015-.125.022-.117.029-.11.029-.1.037-.1.037-.088.037-.088.044-.073.051-.073.051-.066.059-.051.066-.051.059-.044.073-.037.073-.022.073-.022.081-.015h.132Zm6.325,2.444-.33.022-.323.029-.308.044-.294.044-.286.059-.272.073-.264.081-.257.088-.242.1-.213.1-.22.117-.22.132-.227.154-.227.176-.235.191-.242.213-.249.227-.257.242-.272.264-.286.279v9.143h.081v-.029l.66.389.638.352.616.323.594.279.572.242.558.2.536.169.506.132.492.1.47.051.448.022.389-.007.374-.015.36-.037.352-.044.338-.051.323-.073.308-.081.294-.1.279-.11.264-.132.242-.139.294-.183.257-.2.227-.213.2-.227.169-.242.139-.257.11-.272.088-.279.066-.3.029-.316.015-.323V86.958l-.015-.382-.037-.36-.073-.33-.1-.316-.132-.294L380.472,85l-.191-.257-.213-.235-.25-.213-.279-.205-.308-.176-.25-.125-.264-.117-.279-.1-.294-.088-.316-.081-.33-.066-.345-.051-.36-.044-.374-.029-.389-.015-.4-.007-.36.007Z" transform="translate(-367.55 -80.757)"/></g><g transform="translate(244.673)"><path class="c" d="M404.888,72.308c1.269-1.431,2.326-2.172,3.045-2.172a1.258,1.258,0,0,1,.712.242.979.979,0,0,1,.323.631c0,.4-.477.954-1.358,1.857a17.335,17.335,0,0,0-5.533,13.062,18.514,18.514,0,0,0,5.694,14.016c.793.712,1.115,1.269,1.115,1.746a1.407,1.407,0,0,1-.323.712,1.163,1.163,0,0,1-.712.323c-.873,0-2.091-1.035-3.684-3.045-3.1-3.816-4.491-8.021-4.557-13.752S401.358,76.314,404.888,72.308Z" transform="translate(-399.61 -70.136)"/><path class="d" d="M404.888,72.308c1.269-1.431,2.326-2.172,3.045-2.172a1.258,1.258,0,0,1,.712.242.979.979,0,0,1,.323.631c0,.4-.477.954-1.358,1.857a17.335,17.335,0,0,0-5.533,13.062,18.514,18.514,0,0,0,5.694,14.016c.793.712,1.115,1.269,1.115,1.746a1.407,1.407,0,0,1-.323.712,1.163,1.163,0,0,1-.712.323c-.873,0-2.091-1.035-3.684-3.045-3.1-3.816-4.491-8.021-4.557-13.752S401.358,76.314,404.888,72.308Z" transform="translate(-399.61 -70.136)"/></g><g transform="translate(256.467 28.802)"><path class="c" d="M416.966,111.922a1.394,1.394,0,0,1,0-2.788h22.212a1.36,1.36,0,0,1,1.387,1.394c-.2.8-.594,1.394-1.387,1.394H416.966Z" transform="translate(-415.579 -109.133)"/><path class="d" d="M416.966,111.922a1.394,1.394,0,0,1,0-2.788h22.212a1.36,1.36,0,0,1,1.387,1.394c-.2.8-.594,1.394-1.387,1.394H416.966Z" transform="translate(-415.579 -109.133)"/></g><g transform="translate(260.62 2.045)"><path class="c" d="M426.662,77.192c0,4-5.46,8.4-5.46,12.555,0,4.476,3.449,7.367,6.729,8.241.477.081.638-.4.081-.558-1.35-.316-2.8-2.091-2.8-4.792,0-2.568,2.488-3.522,3.442-4.718,1.035-1.269.793-2.884.161-3.361s-.161-1.115.873-.323a3.509,3.509,0,0,1,1.585,3.449c-.4,1.666.161,2.649,1.035,2.8s1.857-.316,1.746-1.108-.55-1.673-.316-1.673c.638,0,1.937,1.512,1.937,4.007s-2.018,4.153-2.649,4.792c-.4.4.073.873.631.638a5.639,5.639,0,0,0,1.115-.638,9.1,9.1,0,0,0,4.08-7.683,9.9,9.9,0,0,0-3.442-8.16c-1.754-1.666-2.179-1.269-1.673-.4,1.431,2.488.558,3.361-.477,3.361-1.269,0-1.269-2.8-1.857-4.953a7.264,7.264,0,0,0-6.252-5.694c-.58-.264-1.321.213-.345.609h0A4.11,4.11,0,0,1,426.662,77.192Z" transform="translate(-421.202 -72.904)"/><path class="d" d="M426.662,77.192c0,4-5.46,8.4-5.46,12.555,0,4.476,3.449,7.367,6.729,8.241.477.081.638-.4.081-.558-1.35-.316-2.8-2.091-2.8-4.792,0-2.568,2.488-3.522,3.442-4.718,1.035-1.269.793-2.884.161-3.361s-.161-1.115.873-.323a3.509,3.509,0,0,1,1.585,3.449c-.4,1.666.161,2.649,1.035,2.8s1.857-.316,1.746-1.108-.55-1.673-.316-1.673c.638,0,1.937,1.512,1.937,4.007s-2.018,4.153-2.649,4.792c-.4.4.073.873.631.638a5.639,5.639,0,0,0,1.115-.638,9.1,9.1,0,0,0,4.08-7.683,9.9,9.9,0,0,0-3.442-8.16c-1.754-1.666-2.179-1.269-1.673-.4,1.431,2.488.558,3.361-.477,3.361-1.269,0-1.269-2.8-1.857-4.953a7.264,7.264,0,0,0-6.252-5.694c-.58-.264-1.321.213-.345.609h0A4.11,4.11,0,0,1,426.662,77.192Z" transform="translate(-421.202 -72.904)"/></g><g transform="translate(283.86 0.132)"><path class="c" d="M456.749,100.7c-1.277,1.431-2.334,2.172-3.053,2.172a1.3,1.3,0,0,1-.712-.235,1.174,1.174,0,0,1-.316-.719c0-.4.477-.954,1.35-1.746a17.335,17.335,0,0,0,5.533-13.062A18.514,18.514,0,0,0,453.857,73.1c-.793-.712-1.115-1.269-1.115-1.746a1.407,1.407,0,0,1,.323-.712,1.163,1.163,0,0,1,.712-.323c.793,0,2.091,1.035,3.684,3.053a21.011,21.011,0,0,1,4.557,13.8A19.523,19.523,0,0,1,456.749,100.7Z" transform="translate(-452.669 -70.315)"/><path class="d" d="M456.749,100.7c-1.277,1.431-2.334,2.172-3.053,2.172a1.3,1.3,0,0,1-.712-.235,1.174,1.174,0,0,1-.316-.719c0-.4.477-.954,1.35-1.746a17.335,17.335,0,0,0,5.533-13.062A18.514,18.514,0,0,0,453.857,73.1c-.793-.712-1.115-1.269-1.115-1.746a1.407,1.407,0,0,1,.323-.712,1.163,1.163,0,0,1,.712-.323c.793,0,2.091,1.035,3.684,3.053a21.011,21.011,0,0,1,4.557,13.8A19.523,19.523,0,0,1,456.749,100.7Z" transform="translate(-452.669 -70.315)"/></g></g></g></svg>