<svg xmlns="http://www.w3.org/2000/svg" xmlns:xlink="http://www.w3.org/1999/xlink" width="80" height="22.626" viewBox="0 0 80 22.626"><defs><style>.a{fill:#fff;}.b{clip-path:url(#a);}</style><clipPath id="a"><rect class="a" width="80" height="22.626" transform="translate(1206 374)"/></clipPath></defs><g class="b" transform="translate(-1206 -374)"><path class="a" d="M37.333,12.195c-.087.132-.143.222-.2.309a6.807,6.807,0,0,1-2.069,2.065,5.073,5.073,0,0,1-3.734.686,9.378,9.378,0,0,1-1.935-.824.317.317,0,0,0-.356.006,15.351,15.351,0,0,1-1.649.93,4.841,4.841,0,0,1-3.212.4,4.676,4.676,0,0,1-1.846-1.05c-.387-.335-.411-.335-.8-.012a7.861,7.861,0,0,1-2.371,1.263,13.372,13.372,0,0,1-3.261.729,3.768,3.768,0,0,1-3.541-1.214,2.808,2.808,0,0,1-.484-3.015c.494-1.183,1.066-2.333,1.6-3.5.28-.607.561-1.213.833-1.823a1.037,1.037,0,0,0,.075-.367c.011-.228.057-.477-.206-.614a.607.607,0,0,0-.783.135,6.357,6.357,0,0,0-.649,1.007c-.609,1.169-1.2,2.349-1.792,3.526-.446.882-.883,1.769-1.333,2.649a1.6,1.6,0,0,1-2.095.828A.779.779,0,0,1,7,13.654a2.476,2.476,0,0,1,.248-1.3c.361-.911.726-1.821,1.086-2.733.193-.489.386-.978.567-1.471A1.388,1.388,0,0,0,8.915,7.1a.642.642,0,0,0-.657-.422.845.845,0,0,0-.748.532c-.458,1.132-.9,2.271-1.349,3.4-.539,1.358-1.07,2.719-1.632,4.068A1.994,1.994,0,0,1,3.481,15.85a2.426,2.426,0,0,1-.857.179,2.477,2.477,0,0,1-2.2-1.05A2.263,2.263,0,0,1,.1,12.986c.188-.66.376-1.321.574-1.978.187-.623.386-1.243.58-1.865.181-.579.35-1.162.546-1.735A17.484,17.484,0,0,1,3.11,4.082,3.085,3.085,0,0,1,4.985,2.753a2.872,2.872,0,0,1,2.2.41c.263.131.523.27.793.384A.956.956,0,0,0,9,3.357c.249-.2.5-.406.73-.63a1.837,1.837,0,0,1,2.42-.012c.14.15.3.277.458.413.317.28.448.309.815.1a3.085,3.085,0,0,1,2.665-.109,1.78,1.78,0,0,1,1.021,1.14,2.938,2.938,0,0,1-.122,2.219C16.458,7.8,15.876,9.1,15.354,10.427a23.449,23.449,0,0,0-.792,2.41,2.174,2.174,0,0,0-.007,1.06c.128.505.59.671,1.058.73a5.325,5.325,0,0,0,2.095-.231c.583-.161,1.157-.359,1.727-.565a7.219,7.219,0,0,0,.793-.385c.224-.113.242-.28.123-.488-.242-.426-.5-.847-.708-1.288a5.578,5.578,0,0,1-.721-2.956A2.642,2.642,0,0,1,20.2,6.486a2.294,2.294,0,0,1,3.227.556,3.367,3.367,0,0,1,.725,3.261,20.038,20.038,0,0,1-.734,1.975.319.319,0,0,0,.083.4,5.883,5.883,0,0,0,1.817,1.159,4.417,4.417,0,0,0,.793.235,2.057,2.057,0,0,0,1.6-.35c.23-.156.235-.3.076-.519a6.357,6.357,0,0,1-1.218-5.06,1.756,1.756,0,0,1,1.192-1.55,3.878,3.878,0,0,1,1.461-.058,2.712,2.712,0,0,1,1.962,1.08,3.039,3.039,0,0,1,.473,2.646,5.737,5.737,0,0,1-.939,1.849c-.158.226-.164.435.051.586a4.651,4.651,0,0,0,1.044.624,3.786,3.786,0,0,0,2.48,0,2.933,2.933,0,0,0,1.888-1.768A8.072,8.072,0,0,0,36.6,8.283c-.017-.868-.048-1.736-.073-2.6-.009-.31-.059-.328-.355-.268-.779.157-1.561.3-2.343.439-.246.045-.5.075-.741.12a.764.764,0,0,1-1.01-.752c-.031-.633-.123-1.263-.188-1.894q-.006-.053-.009-.107c-.036-.743.143-1.147,1.036-1.115.921.034,1.843.064,2.763.113.453.024.612-.09.642-.54.023-.349.033-.7.054-1.046.033-.523.152-.647.683-.626A5.3,5.3,0,0,1,38,.14a.852.852,0,0,1,.7.841c.025.356.014.716.009,1.073,0,.253.074.389.358.417.819.083,1.634.2,2.451.294.386.046.6.2.654.489.09.5-.017.839-.393.975a15.974,15.974,0,0,1-1.613.469c-.38.094-.775.134-1.161.205a.426.426,0,0,0-.4.476c.01,1.441-.023,2.884.019,4.324a5.681,5.681,0,0,0,.457,2.218,1.115,1.115,0,0,0,1.322.693,5.272,5.272,0,0,0,2.461-1.044,1.613,1.613,0,0,0,.686-1.245q.054-1.476.143-2.95a3.059,3.059,0,0,1,.143-.842c.053-.147.245-.341.379-.345a19.094,19.094,0,0,1,2.222.034.881.881,0,0,1,.757.964c-.033.687-.122,1.372-.187,2.057-.081.846-.155,1.692-.245,2.537a1.168,1.168,0,0,0,1.27,1.287,1.08,1.08,0,0,0,1.144-.806,9.245,9.245,0,0,0,.506-1.961c.152-.944.224-1.9.337-2.851A.83.83,0,0,1,50.61,6.7a.815.815,0,0,1,.92.385,2.027,2.027,0,0,1,.041.883c-.123,1.082-.3,2.16-.4,3.244a1.221,1.221,0,0,0,.958,1.337,5.692,5.692,0,0,0,.991.214c.587.067,1-.361,1.125-1.028.1-.561.118-1.138.168-1.708.059-.677.068-1.363.183-2.03a2.6,2.6,0,0,1,1.991-2.172,6.034,6.034,0,0,1,2.134-.112,2.991,2.991,0,0,1,2.556,2.1,4.568,4.568,0,0,1-.151,2.763,4.856,4.856,0,0,1-1.924,2.5,1.058,1.058,0,0,0-.2.252c.115.051.23.147.344.145a5.955,5.955,0,0,0,3.062-.838,7.455,7.455,0,0,1,.669-.333c.206-.1.328.018.27.2a2.71,2.71,0,0,1-.4.854,4.239,4.239,0,0,1-3.182,1.6,13.473,13.473,0,0,1-1.633-.066c-.411-.023-.821-.059-1.232-.087a.327.327,0,0,0-.381.289,36.039,36.039,0,0,0-.67,4.1,22.485,22.485,0,0,1-.476,2.578,1.135,1.135,0,0,1-.969.857.517.517,0,0,1-.617-.358,2.876,2.876,0,0,1-.183-.724,16.918,16.918,0,0,1,.1-3.616c.081-.612.136-1.227.206-1.84.049-.427.114-.852.154-1.279.031-.345-.047-.427-.378-.492-.684-.136-1.368-.27-2.048-.421a1.154,1.154,0,0,0-1.136.38,4.585,4.585,0,0,1-1.423,1.03,3.582,3.582,0,0,1-2.037.12,3.347,3.347,0,0,1-2.316-1.5,6.6,6.6,0,0,1-.433-.824c-.076-.156-.144-.217-.327-.124-.65.331-1.3.671-1.97.955a3.5,3.5,0,0,1-2.336.205A3.637,3.637,0,0,1,37.8,12.793C37.668,12.626,37.538,12.457,37.333,12.195Zm22.311-3.1c-.009-.107-.009-.215-.026-.32a.741.741,0,0,0-1.206-.516,2.462,2.462,0,0,0-.579.619,8.407,8.407,0,0,0-.968,2.562,2.577,2.577,0,0,0-.093.688c.009.427.26.552.617.322a5.874,5.874,0,0,0,1.755-1.881A2.643,2.643,0,0,0,59.644,9.095Zm-29.114.431a1.457,1.457,0,0,0-.4-1.122.611.611,0,0,0-.638-.165A.681.681,0,0,0,29,8.926a3.7,3.7,0,0,0,.582,1.944c.164.313.319.3.53.014A2.279,2.279,0,0,0,30.531,9.525Zm-7.325-.137a6.034,6.034,0,0,0-.243-.777.721.721,0,0,0-.839-.366c-.345.091-.482.255-.446.681a6.181,6.181,0,0,0,.215,1.1,3.581,3.581,0,0,0,.315.765c.177.325.362.328.537.014A3.323,3.323,0,0,0,23.206,9.388Z" transform="translate(1213.295 374)"/></g></svg>