<svg xmlns="http://www.w3.org/2000/svg" xmlns:xlink="http://www.w3.org/1999/xlink" width="24.326" height="24.326" viewBox="0 0 24.326 24.326"><defs><style>.a,.c{fill:#fff;}.a{stroke:#707070;}.b{clip-path:url(#a);}</style><clipPath id="a"><rect class="a" width="24.326" height="24.326" transform="translate(1304 373)"/></clipPath></defs><g class="b" transform="translate(-1304 -373)"><path class="c" d="M12.679.516A12.163,12.163,0,1,1,.516,12.679,12.161,12.161,0,0,1,12.679.516ZM11.262,7.559l3.7,3.551H6.009a1.174,1.174,0,0,0-1.177,1.177v.785a1.174,1.174,0,0,0,1.177,1.177h8.956l-3.7,3.551a1.178,1.178,0,0,0-.02,1.682l.539.535a1.172,1.172,0,0,0,1.663,0l6.508-6.5a1.172,1.172,0,0,0,0-1.663L13.444,5.337a1.172,1.172,0,0,0-1.663,0l-.539.535A1.184,1.184,0,0,0,11.262,7.559Z" transform="translate(1303.484 372.484)"/></g></svg>